<svg width="16" height="2" viewBox="0 0 16 2" fill="none" xmlns="http://www.w3.org/2000/svg">
<path d="M8 0.00319671C8.26522 0.00319671 8.5 -0.00196473 8.70711 -0.00282406C9 -0.00195312 9 -0.00177807 9 0.00329079V0.000267026H15C15.2652 0.000267026 15.5196 0.105624 15.7071 0.293161C15.8946 0.480697 16 0.735051 16 1.00027C16 1.26548 15.8946 1.51984 15.7071 1.70738C15.5196 1.89491 15.2652 2.00027 15 2.00027H9C9 2.00027 9 2 8.70711 2C8.5 2 8.26522 2 8 2C7.73478 2 7.5 2 7.29289 2.00027C7 2 7 2 7 2L1 2.00027C0.734784 2.00027 0.48043 1.89491 0.292893 1.70738C0.105357 1.51984 0 1.26548 0 1.00027C0 0.735051 0.105357 0.480697 0.292893 0.293161C0.48043 0.105624 0.734784 0.000267026 1 0.000267026H7V0.00319265C7 -0.00163294 7 -0.00177807 7.29289 -0.00282406C7.58579 -0.00387004 7.73478 0.00319671 8 0.00319671Z" fill="#9CA3AF"/>
</svg>
