<svg width="77" height="47" viewBox="0 0 77 47" fill="none" xmlns="http://www.w3.org/2000/svg">
<path d="M2.06522 19.8103C-0.198182 21.9171 -0.274488 25.3727 1.8871 27.6006C4.0487 29.8286 7.57588 29.9297 9.83929 27.8229C12.1027 25.7162 12.1837 22.2562 10.0221 20.0282C7.86022 17.8 4.32863 17.7035 2.06522 19.8103ZM27.1916 0.890852C26.4337 4.83422 25.0624 8.09399 23.1129 10.7869C33.2677 12.5609 41.0071 14.3996 46.4296 16.3192C49.4159 17.376 51.7052 18.441 53.3832 19.6521C55.0611 20.8632 56.3243 22.4232 56.2498 24.3335C56.1757 26.2437 54.8366 27.6938 53.0936 28.8408C51.3507 29.9875 49.0033 30.9799 45.9659 31.9465C40.3802 33.7248 32.4545 35.3611 22.131 36.853C24.0946 39.6629 25.4413 42.9098 26.1191 46.6253C42.125 44.0906 62.9968 36.0688 76.2852 25.1184C64.5027 11.9008 43.6924 4.09907 27.1916 0.890852ZM13.5868 18.253C16.0718 21.5198 16.0961 26.0115 13.717 29.2757C15.7729 30.4828 17.5956 31.8547 19.1803 33.3938C30.5528 31.8291 39.1222 30.0907 44.7366 28.3033C47.5745 27.4 49.6601 26.4678 50.9002 25.6517C52.1404 24.8358 52.3332 24.2839 52.3374 24.1721C52.3418 24.0602 52.2306 23.5737 51.0702 22.7359C49.9103 21.8989 47.8997 20.9094 45.1184 19.9248C39.6757 17.9984 31.2873 16.0302 20.0619 14.15C18.2148 15.7876 16.0544 17.1391 13.5868 18.253Z" fill="#FBC321"/>
</svg>
