<svg width="76" height="46" viewBox="0 0 76 46" fill="none" xmlns="http://www.w3.org/2000/svg">
<path d="M74.3568 26.3036C76.5646 24.141 76.5511 20.6846 74.3322 18.5113C72.1134 16.338 68.5847 16.3249 66.3769 18.4874C64.169 20.65 64.178 24.1109 66.3968 26.2842C68.6159 28.4578 72.1489 28.4661 74.3568 26.3036ZM49.7305 45.8437C50.3856 41.8827 51.6717 38.5898 53.5505 35.8491C43.3529 34.329 35.5682 32.684 30.0975 30.9003C27.0847 29.9183 24.7684 28.9107 23.0595 27.7419C21.3507 26.573 20.0474 25.045 20.0721 23.1336C20.0965 21.2221 21.3975 19.739 23.1101 18.549C24.8226 17.3591 27.1435 16.3085 30.1547 15.2664C35.6924 13.3493 43.573 11.5159 53.8544 9.76694C51.8183 7.00692 50.3876 3.79466 49.6134 0.0973438C33.6786 3.03044 13.0222 11.5704 0.0228392 22.8487C12.1452 35.7681 33.1516 43.0481 49.7305 45.8437ZM62.8794 28.1478C60.3102 24.944 60.1692 20.4544 62.4627 17.1319C60.376 15.9765 58.5182 14.6505 56.8941 13.1514C45.5659 14.9993 37.0445 16.9509 31.4784 18.8778C28.6649 19.8516 26.6042 20.8355 25.3857 21.6823C24.1671 22.5289 23.9888 23.0854 23.9874 23.1973C23.9859 23.3092 24.1098 23.7929 25.2916 24.6014C26.4729 25.4092 28.5085 26.3482 31.3146 27.2631C36.8056 29.0531 45.2424 30.8114 56.5131 32.411C58.317 30.7278 60.4415 29.3228 62.8794 28.1478Z" fill="#FBC321"/>
</svg>
