<svg width="272" height="65" viewBox="0 0 272 65" fill="none" xmlns="http://www.w3.org/2000/svg">
<path d="M0 0H12.8284L15.4142 2.58579L18 0H253.414L256 2.58579L258.586 0H271.414L264.414 7L264.415 7.0008L263.001 8.41501L263 8.41421L261 10.4142L257.586 7L261 3.58579L262.416 5.00155L261.002 6.41577L261 6.41421L260.414 7L260.416 7.00155L260.411 7.00675L260.999 7.59469L264.534 4.05916L264.53 4.05545L266.586 2H259.414L256 5.41421L252.586 2H18.8284L15.4142 5.41421L12 2H4.82843L6.88388 4.05545L6.88017 4.05916L10.4157 7.59469L11.0036 7.00675L10.9984 7.00155L11 7L10.4142 6.41421L10.4127 6.41577L8.99845 5.00155L10.4142 3.58579L13.8284 7L10.4142 10.4142L8.41421 8.41421L8.41342 8.41501L6.9992 7.0008L7 7L0 0Z" fill="url(#paint0_linear_150_5453)"/>
<path d="M6.41126 7.58874L4.5 9.5L6.16421 11.1642V53.8358L4.5 55.5L6.41126 57.4113L7.82548 55.997L7.32843 55.5L9.12132 53.7071L8.16421 52.75V12.25L9.12132 11.2929L7.32843 9.5L7.82548 9.00295L6.41126 7.58874Z" fill="url(#paint1_linear_150_5453)"/>
<path d="M0 65H12.8284L15.4142 62.4142L18 65H253.414L256 62.4142L258.586 65H271.414L264.414 58L264.415 57.9992L263.001 56.585L263 56.5858L261 54.5858L257.586 58L261 61.4142L262.416 59.9984L261.002 58.5842L261 58.5858L260.414 58L260.416 57.9984L260.411 57.9932L260.999 57.4053L264.534 60.9408L264.53 60.9445L266.586 63H259.414L256 59.5858L252.586 63H18.8284L15.4142 59.5858L12 63H4.82843L6.88388 60.9445L6.88017 60.9408L10.4157 57.4053L11.0036 57.9932L10.9984 57.9984L11 58L10.4142 58.5858L10.4127 58.5842L8.99845 59.9984L10.4142 61.4142L13.8284 58L10.4142 54.5858L8.41421 56.5858L8.41342 56.585L6.9992 57.9992L7 58L0 65Z" fill="url(#paint2_linear_150_5453)"/>
<path d="M265.003 7.58874L266.914 9.5L265.25 11.1642V53.8358L266.914 55.5L265.003 57.4113L263.589 55.997L264.086 55.5L262.293 53.7071L263.25 52.75V12.25L262.293 11.2929L264.086 9.5L263.589 9.00295L265.003 7.58874Z" fill="url(#paint3_linear_150_5453)"/>
<defs>
<linearGradient id="paint0_linear_150_5453" x1="135.707" y1="0" x2="135.707" y2="65" gradientUnits="userSpaceOnUse">
<stop stop-color="#A4B32F"/>
<stop offset="0.492201" stop-color="#A4B32F"/>
<stop offset="0.505209" stop-color="#464F04"/>
<stop offset="1" stop-color="#A4B32F"/>
</linearGradient>
<linearGradient id="paint1_linear_150_5453" x1="135.707" y1="0" x2="135.707" y2="65" gradientUnits="userSpaceOnUse">
<stop stop-color="#A4B32F"/>
<stop offset="0.492201" stop-color="#A4B32F"/>
<stop offset="0.505209" stop-color="#464F04"/>
<stop offset="1" stop-color="#A4B32F"/>
</linearGradient>
<linearGradient id="paint2_linear_150_5453" x1="135.707" y1="0" x2="135.707" y2="65" gradientUnits="userSpaceOnUse">
<stop stop-color="#A4B32F"/>
<stop offset="0.492201" stop-color="#A4B32F"/>
<stop offset="0.505209" stop-color="#464F04"/>
<stop offset="1" stop-color="#A4B32F"/>
</linearGradient>
<linearGradient id="paint3_linear_150_5453" x1="135.707" y1="0" x2="135.707" y2="65" gradientUnits="userSpaceOnUse">
<stop stop-color="#A4B32F"/>
<stop offset="0.492201" stop-color="#A4B32F"/>
<stop offset="0.505209" stop-color="#464F04"/>
<stop offset="1" stop-color="#A4B32F"/>
</linearGradient>
</defs>
</svg>
