<svg width="23" height="19" viewBox="0 0 23 19" fill="none" xmlns="http://www.w3.org/2000/svg">
<path d="M19.471 2.18852C17.9798 1.50368 16.406 1.01517 14.7891 0.735221C14.7744 0.732754 14.7594 0.734885 14.746 0.74132C14.7326 0.747755 14.7216 0.758179 14.7143 0.771158C14.5117 1.13053 14.2874 1.60059 14.1307 1.96858C12.3879 1.70432 10.6152 1.70432 8.8724 1.96858C8.69835 1.5583 8.50061 1.15849 8.28016 0.771158C8.27294 0.758179 8.26187 0.747755 8.24849 0.74132C8.2351 0.734885 8.22005 0.732754 8.20541 0.735221C6.58824 1.01409 5.01419 1.50284 3.52352 2.18852C3.5107 2.19328 3.5 2.20245 3.49333 2.21439C0.511988 6.66916 -0.305942 11.0147 0.0951168 15.3056C0.0979918 15.3266 0.108054 15.3444 0.125304 15.3588C1.86174 16.6442 3.80349 17.626 5.86806 18.2625C5.88263 18.2671 5.8983 18.2669 5.91278 18.262C5.92725 18.2571 5.93979 18.2477 5.94856 18.2352C6.39226 17.6314 6.78421 16.9946 7.12442 16.3247C7.13149 16.3109 7.13391 16.2952 7.13132 16.28C7.12873 16.2647 7.12127 16.2506 7.11004 16.2399L7.08417 16.2241C6.46513 15.9854 5.86537 15.6995 5.29019 15.3688C5.27413 15.3597 5.26219 15.3448 5.25684 15.3271C5.25149 15.3095 5.25313 15.2904 5.26144 15.2739L5.283 15.2466C5.40471 15.1556 5.52354 15.0622 5.6395 14.9663C5.64966 14.9582 5.66184 14.9529 5.67476 14.9511C5.68767 14.9494 5.70082 14.9511 5.71281 14.9563C9.47758 16.6755 13.5529 16.6755 17.2716 14.9563C17.284 14.9506 17.2977 14.9485 17.3112 14.9503C17.3247 14.952 17.3374 14.9576 17.3478 14.9663C17.4638 15.0622 17.5826 15.1556 17.7043 15.2466C17.7144 15.2536 17.7226 15.2629 17.7281 15.2739C17.7335 15.2849 17.7361 15.2971 17.7355 15.3093C17.7349 15.3216 17.7312 15.3335 17.7248 15.3439C17.7183 15.3543 17.7093 15.3629 17.6986 15.3688C17.1259 15.7047 16.5251 15.9904 15.9031 16.2227C15.8932 16.2263 15.8842 16.232 15.8768 16.2394C15.8693 16.2469 15.8636 16.2559 15.86 16.2658C15.8565 16.2754 15.8551 16.2856 15.8558 16.2957C15.8566 16.3059 15.8595 16.3158 15.8643 16.3247C16.2093 16.9932 16.6046 17.6314 17.0388 18.2352C17.0475 18.2477 17.0601 18.2571 17.0745 18.262C17.089 18.2669 17.1047 18.2671 17.1193 18.2625C19.1879 17.6295 21.133 16.6474 22.8706 15.3588C22.8793 15.3527 22.8864 15.3447 22.8917 15.3355C22.8969 15.3263 22.9 15.3161 22.9008 15.3056C23.3809 10.3448 22.0973 6.03523 19.4997 2.21583C19.4975 2.20931 19.4937 2.20343 19.4887 2.19867C19.4837 2.19392 19.4776 2.19044 19.471 2.18852ZM7.68647 12.6922C6.5523 12.6922 5.61937 11.6515 5.61937 10.375C5.61937 9.09851 6.53505 8.05633 7.68647 8.05633C8.84653 8.05633 9.77083 9.10569 9.75358 10.375C9.75358 11.6515 8.8379 12.6922 7.68647 12.6922ZM15.3281 12.6922C14.1954 12.6922 13.261 11.6515 13.261 10.375C13.261 9.09851 14.1767 8.05633 15.3281 8.05633C16.4882 8.05633 17.4139 9.10569 17.3952 10.375C17.3952 11.6515 16.4882 12.6922 15.3281 12.6922Z" fill="#EEEEEE"/>
</svg>
