<svg width="36" height="35" viewBox="0 0 36 35" fill="none" xmlns="http://www.w3.org/2000/svg">
<g clip-path="url(#clip0_69_3006)">
<path d="M35.3253 17.6074C35.3253 7.8818 27.4734 -0.00195312 17.7889 -0.00195312C8.1 0.000234375 0.248047 7.8818 0.248047 17.6096C0.248047 26.3968 6.66201 33.6812 15.0444 35.0024V22.6977H10.5946V17.6096H15.0488V13.7268C15.0488 9.31461 17.6683 6.87773 21.6732 6.87773C23.5935 6.87773 25.5992 7.22117 25.5992 7.22117V11.5524H23.3874C21.2107 11.5524 20.5312 12.9109 20.5312 14.3043V17.6074H25.3931L24.6171 22.6955H20.529V35.0002C28.9114 33.679 35.3253 26.3946 35.3253 17.6074Z" fill="#FBC321"/>
</g>
<defs>
<clipPath id="clip0_69_3006">
<rect width="35.0729" height="35" fill="white" transform="translate(0.251953)"/>
</clipPath>
</defs>
</svg>
