<svg width="36" height="35" viewBox="0 0 36 35" fill="none" xmlns="http://www.w3.org/2000/svg">
<g clip-path="url(#clip0_69_3004)">
<path d="M17.6478 0C12.8888 0 12.2904 0.021875 10.4206 0.105C8.55075 0.1925 7.27716 0.485625 6.16141 0.91875C4.99051 1.35696 3.9302 2.04618 3.05526 2.93781C2.16178 3.81093 1.47112 4.86903 1.03199 6.0375C0.597965 7.14875 0.302037 8.42188 0.216547 10.2812C0.133249 12.1516 0.111328 12.7466 0.111328 17.5022C0.111328 22.2534 0.133249 22.8484 0.216547 24.7144C0.304229 26.5781 0.597965 27.8491 1.03199 28.9625C1.48136 30.1131 2.0798 31.0887 3.05526 32.0622C4.02853 33.0356 5.00619 33.635 6.15921 34.0812C7.27716 34.5144 8.54856 34.8097 10.4162 34.895C12.2882 34.9781 12.8844 35 17.6478 35C22.4111 35 23.0052 34.9781 24.8772 34.895C26.7426 34.8075 28.0206 34.5144 29.1364 34.0812C30.3065 33.6428 31.366 32.9535 32.2403 32.0622C33.2158 31.0887 33.8142 30.1131 34.2636 28.9625C34.6954 27.8491 34.9913 26.5781 35.079 24.7144C35.1623 22.8484 35.1842 22.2534 35.1842 17.5C35.1842 12.7466 35.1623 12.1516 35.079 10.2834C34.9913 8.42188 34.6954 7.14875 34.2636 6.0375C33.8245 4.86903 33.1338 3.81093 32.2403 2.93781C31.3654 2.04618 30.3051 1.35696 29.1342 0.91875C28.0162 0.485625 26.7404 0.190313 24.875 0.105C23.003 0.021875 22.4089 0 17.6434 0H17.6478ZM16.0761 3.15438H17.65C22.3322 3.15438 22.8868 3.16969 24.7347 3.255C26.4445 3.33156 27.3739 3.61812 27.9921 3.85656C28.8097 4.17375 29.395 4.55438 30.0088 5.16687C30.6226 5.77938 31.0018 6.36125 31.3197 7.17938C31.5608 7.79406 31.8457 8.72156 31.9225 10.4278C32.008 12.2719 32.0255 12.8253 32.0255 17.4956C32.0255 22.1659 32.008 22.7216 31.9225 24.5656C31.8457 26.2719 31.5586 27.1972 31.3197 27.8141C31.0365 28.5729 30.588 29.2595 30.0066 29.8244C29.3928 30.4369 28.8097 30.8153 27.9899 31.1325C27.3761 31.3731 26.4467 31.6575 24.7347 31.7362C22.8868 31.8194 22.3322 31.8391 17.65 31.8391C12.9677 31.8391 12.411 31.8194 10.5631 31.7362C8.85325 31.6575 7.92601 31.3731 7.30785 31.1325C6.54684 30.8509 5.85802 30.4041 5.29116 29.8244C4.70867 29.2591 4.25942 28.5717 3.97593 27.8119C3.73699 27.1972 3.44983 26.2697 3.37311 24.5634C3.28981 22.7194 3.27227 22.1659 3.27227 17.4912C3.27227 12.8166 3.28981 12.2675 3.37311 10.4234C3.45202 8.71719 3.73699 7.78969 3.97812 7.17281C4.29597 6.35687 4.67738 5.77281 5.29116 5.16031C5.90494 4.54781 6.48802 4.16937 7.30785 3.85219C7.92601 3.61156 8.85325 3.32719 10.5631 3.24844C12.1808 3.17406 12.8077 3.15219 16.0761 3.15V3.15438ZM27.0101 6.05937C26.7337 6.05937 26.4601 6.11369 26.2048 6.21923C25.9494 6.32476 25.7175 6.47945 25.522 6.67445C25.3266 6.86945 25.1716 7.10096 25.0659 7.35574C24.9601 7.61052 24.9057 7.8836 24.9057 8.15938C24.9057 8.43515 24.9601 8.70823 25.0659 8.96301C25.1716 9.21779 25.3266 9.4493 25.522 9.6443C25.7175 9.8393 25.9494 9.99399 26.2048 10.0995C26.4601 10.2051 26.7337 10.2594 27.0101 10.2594C27.5682 10.2594 28.1034 10.0381 28.4981 9.6443C28.8927 9.25047 29.1144 8.71633 29.1144 8.15938C29.1144 7.60242 28.8927 7.06828 28.4981 6.67445C28.1034 6.28062 27.5682 6.05937 27.0101 6.05937ZM17.65 8.51375C16.4555 8.49515 15.2692 8.71387 14.1602 9.15718C13.0512 9.60049 12.0416 10.2595 11.1903 11.0959C10.339 11.9323 9.66292 12.9294 9.20144 14.029C8.73996 15.1286 8.50231 16.3089 8.50231 17.5011C8.50231 18.6933 8.73996 19.8735 9.20144 20.9732C9.66292 22.0728 10.339 23.0699 11.1903 23.9063C12.0416 24.7427 13.0512 25.4017 14.1602 25.845C15.2692 26.2883 16.4555 26.507 17.65 26.4884C20.0142 26.4516 22.2691 25.4886 23.928 23.8071C25.5869 22.1257 26.5166 19.8607 26.5166 17.5011C26.5166 15.1415 25.5869 12.8765 23.928 11.1951C22.2691 9.51363 20.0142 8.55056 17.65 8.51375ZM17.65 11.6659C18.4177 11.6659 19.1779 11.8168 19.8872 12.11C20.5965 12.4032 21.241 12.833 21.7839 13.3747C22.3268 13.9164 22.7574 14.5596 23.0512 15.2674C23.345 15.9752 23.4962 16.7339 23.4962 17.5C23.4962 18.2661 23.345 19.0248 23.0512 19.7326C22.7574 20.4404 22.3268 21.0836 21.7839 21.6253C21.241 22.167 20.5965 22.5968 19.8872 22.89C19.1779 23.1832 18.4177 23.3341 17.65 23.3341C16.0995 23.3341 14.6125 22.7194 13.5161 21.6253C12.4197 20.5312 11.8038 19.0473 11.8038 17.5C11.8038 15.9527 12.4197 14.4688 13.5161 13.3747C14.6125 12.2806 16.0995 11.6659 17.65 11.6659Z" fill="#FBC321"/>
</g>
<defs>
<clipPath id="clip0_69_3004">
<rect width="35.0729" height="35" fill="white" transform="translate(0.111328)"/>
</clipPath>
</defs>
</svg>
