<svg width="24" height="24" viewBox="0 0 24 24" fill="none" xmlns="http://www.w3.org/2000/svg">
<g clip-path="url(#clip0_150_5479)">
<path d="M12.0197 0.908203C9.78329 0.908203 7.54679 1.58367 5.64029 2.93414C6.25069 3.64148 6.87375 4.34634 7.47572 5.01858C8.2275 4.47098 8.99832 4.13466 9.75797 3.97411L10.2209 3.51127L10.5314 3.20072L10.8405 3.51131L11.2023 3.87319C14.893 4.13775 17.7901 8.33255 15.9557 12.1012L21.5104 17.6558C24.0626 13.4055 23.5068 7.81772 19.8405 4.15144C17.679 1.98984 14.8494 0.90825 12.0198 0.90825L12.0197 0.908203ZM3.11635 1.26858L1.38338 3.00141C3.16229 4.39987 5.1405 6.09075 6.774 7.54102L7.12121 7.85011L6.79308 8.17823L4.57238 10.3989L5.49525 11.3203L7.11244 9.70312L19.6808 22.2729L23.3063 23.1767L22.2823 19.6714L21.0178 18.4068L21.0196 18.4043L15.5001 12.8848L15.4986 12.8869L9.714 7.10156L11.4528 5.36278L10.5314 4.44141L8.35313 6.61819L8.0265 6.94336L7.71886 6.60211C6.25697 4.98441 4.52935 3.03928 3.11635 1.26858ZM3.05635 5.49023C-0.0821671 9.81609 0.298223 15.8923 4.19883 19.793C6.67993 22.2741 10.041 23.3296 13.2721 22.9629C7.10799 23.0096 1.70311 16.9365 3.56307 10.6275L3.3346 10.3989L3.64369 10.0883L3.79604 9.936C4.12547 9.06825 4.59647 8.20083 5.22572 7.34756C4.52869 6.73856 3.79369 6.10852 3.05635 5.49014V5.49023ZM8.69888 7.64789C9.27464 7.64789 9.74044 8.11514 9.74044 8.69086C9.74044 8.79511 9.72488 8.89477 9.69638 8.98973L20.8029 20.0977L20.1847 20.7159L9.11494 9.64748C8.98744 9.70303 8.84682 9.73388 8.69888 9.73388C8.12307 9.73388 7.65591 9.26681 7.65591 8.69091C7.65591 8.11505 8.12307 7.64794 8.69888 7.64794V7.64789Z" fill="#FBC321"/>
</g>
<defs>
<clipPath id="clip0_150_5479">
<rect width="24" height="24" fill="white"/>
</clipPath>
</defs>
</svg>
