<svg width="46" height="45" viewBox="0 0 46 45" fill="none" xmlns="http://www.w3.org/2000/svg">
<g clip-path="url(#clip0_69_3008)">
<path d="M23.0812 5.62207H23.3321C25.6488 5.63051 37.3872 5.71488 40.5522 6.56426C41.5091 6.82348 42.3809 7.32876 43.0808 8.02959C43.7806 8.73043 44.2838 9.60228 44.5402 10.558C44.8249 11.6268 45.025 13.0414 45.1603 14.5011L45.1884 14.7936L45.2504 15.5249L45.273 15.8174C45.4562 18.388 45.4787 20.7955 45.4816 21.3214V21.5324C45.4787 22.078 45.4534 24.6486 45.2504 27.3261L45.2279 27.6214L45.2025 27.9139C45.0616 29.5227 44.8531 31.1202 44.5402 32.2958C44.2838 33.2516 43.7806 34.1234 43.0808 34.8242C42.3809 35.5251 41.5091 36.0303 40.5522 36.2896C37.2829 37.1671 24.8568 37.2289 23.1348 37.2318H22.7346C21.8637 37.2318 18.2618 37.2149 14.4852 37.0855L14.0061 37.0686L13.7609 37.0574L13.279 37.0377L12.797 37.018C9.66866 36.8802 6.68966 36.658 5.31712 36.2868C4.36064 36.0278 3.48899 35.5229 2.78919 34.8226C2.0894 34.1223 1.58596 33.251 1.32914 32.2958C1.0163 31.123 0.807742 29.5227 0.666824 27.9139L0.644277 27.6186L0.62173 27.3261C0.481837 25.4204 0.40476 23.5106 0.390625 21.5999L0.390625 21.2539C0.396262 20.6493 0.418809 18.5596 0.571 16.2533L0.590729 15.9636L0.599184 15.8174L0.62173 15.5249L0.683734 14.7936L0.711918 14.5011C0.847199 13.0414 1.0473 11.6239 1.33196 10.558C1.58834 9.60228 2.0916 8.73043 2.79142 8.02959C3.49124 7.32876 4.36312 6.82348 5.31993 6.56426C6.69248 6.19863 9.67148 5.97363 12.7999 5.83301L13.279 5.81332L13.7637 5.79645L14.0061 5.78801L14.4881 5.76832C17.1703 5.68227 19.8537 5.63445 22.5373 5.62488L23.0812 5.62207ZM18.4281 14.6502V28.2008L30.144 21.4283L18.4281 14.6502Z" fill="#FBC321"/>
</g>
<defs>
<clipPath id="clip0_69_3008">
<rect width="45.0938" height="45" fill="white" transform="translate(0.390625)"/>
</clipPath>
</defs>
</svg>
